<?xml version="1.0" encoding="utf-8"?>
<!-- Generator: Adobe Illustrator 16.0.0, SVG Export Plug-In . SVG Version: 6.00 Build 0)  -->
<!DOCTYPE svg PUBLIC "-//W3C//DTD SVG 1.1//EN" "http://www.w3.org/Graphics/SVG/1.1/DTD/svg11.dtd">
<svg version="1.1" id="Layer_1" xmlns="http://www.w3.org/2000/svg" xmlns:xlink="http://www.w3.org/1999/xlink" x="0px" y="0px"
	 width="213.667px" height="55.667px" viewBox="0 0 213.667 55.667" enable-background="new 0 0 213.667 55.667"
	 xml:space="preserve">
<g>
	<path fill="#FFFFFF" d="M37.277,30.238c0-3.599-2.841-6.657-6.493-6.964l-14.1-0.06c-0.896,0-1.604-0.702-1.604-1.599v-4.142
		c0-0.892,0.707-1.599,1.604-1.599h19.252V8.065H13.595c-3.84,0-6.963,3.153-6.963,7.023v9.844c0,3.662,2.757,6.651,6.443,6.964
		H27.23c0.881,0,1.604,0.747,1.604,1.662v5.588c0,0.9-0.707,1.604-1.604,1.604H7.334v7.81h22.925c3.87,0,7.018-3.147,7.018-7.022
		V30.238z"/>
	<polygon fill="#FFFFFF" points="51.669,32.247 68.615,32.247 68.615,48.56 77.063,48.56 77.063,8.065 68.615,8.065 68.615,24.438 
		51.669,24.438 51.669,8.065 43.221,8.065 43.221,48.56 51.669,48.56 	"/>
	<rect x="83.927" y="8.065" fill="#FFFFFF" width="8.508" height="40.494"/>
	<polygon fill="#FFFFFF" points="99.141,48.56 127.742,48.56 127.742,40.75 107.649,40.75 107.649,32.247 123.783,32.247 
		123.783,24.438 107.649,24.438 107.649,15.876 127.742,15.876 127.742,8.065 99.141,8.065 	"/>
	<polygon fill="#FFFFFF" points="142.941,8.065 134.493,8.065 134.493,48.56 160.417,48.56 160.417,40.75 142.941,40.75 	"/>
	<path fill="#FFFFFF" d="M187.607,8.065h-20.886V48.56h20.886c7.146,0,12.962-5.815,12.962-12.967V21.027
		C200.569,13.881,194.753,8.065,187.607,8.065z M175.169,15.876h11.215c3.099,0,5.622,2.523,5.622,5.622v13.694
		c0,3.063-2.523,5.558-5.622,5.558h-11.215V15.876z"/>
	<path fill="#FFFFFF" d="M202.667,8.065v0.634h-1.227v3.202h-0.763V8.699h-1.228V8.065H202.667z M206.83,11.901l-0.144-2.257
		c-0.016-0.302-0.016-0.663-0.03-1.074h-0.039c-0.104,0.337-0.218,0.787-0.327,1.148l-0.692,2.128h-0.792l-0.693-2.188
		c-0.069-0.302-0.183-0.752-0.271-1.089h-0.04c0,0.356-0.015,0.723-0.029,1.074l-0.139,2.257h-0.737l0.287-3.836h1.147l0.658,1.876
		c0.084,0.297,0.153,0.579,0.258,0.976h0.01c0.099-0.356,0.193-0.679,0.272-0.966l0.668-1.886h1.099l0.297,3.836H206.83z"/>
	<path fill="#FFFFFF" d="M37.277,30.238c0-3.599-2.841-6.657-6.493-6.964l-14.1-0.06c-0.896,0-1.604-0.702-1.604-1.599v-4.142
		c0-0.892,0.707-1.599,1.604-1.599h19.252V8.065H13.595c-3.84,0-6.963,3.153-6.963,7.023v9.844c0,3.662,2.757,6.651,6.443,6.964
		H27.23c0.881,0,1.604,0.747,1.604,1.662v5.588c0,0.9-0.707,1.604-1.604,1.604H7.334v7.81h22.925c3.87,0,7.018-3.147,7.018-7.022
		V30.238z"/>
	<polygon fill="#FFFFFF" points="51.669,32.247 68.615,32.247 68.615,48.56 77.063,48.56 77.063,8.065 68.615,8.065 68.615,24.438 
		51.669,24.438 51.669,8.065 43.221,8.065 43.221,48.56 51.669,48.56 	"/>
	<rect x="83.927" y="8.065" fill="#FFFFFF" width="8.508" height="40.494"/>
	<polygon fill="#FFFFFF" points="99.141,48.56 127.742,48.56 127.742,40.75 107.649,40.75 107.649,32.247 123.783,32.247 
		123.783,24.438 107.649,24.438 107.649,15.876 127.742,15.876 127.742,8.065 99.141,8.065 	"/>
	<polygon fill="#FFFFFF" points="142.941,8.065 134.493,8.065 134.493,48.56 160.417,48.56 160.417,40.75 142.941,40.75 	"/>
	<path fill="#FFFFFF" d="M187.607,8.065h-20.886V48.56h20.886c7.146,0,12.962-5.815,12.962-12.967V21.027
		C200.569,13.881,194.753,8.065,187.607,8.065z M175.169,15.876h11.215c3.099,0,5.622,2.523,5.622,5.622v13.694
		c0,3.063-2.523,5.558-5.622,5.558h-11.215V15.876z"/>
	<path fill="#FFFFFF" d="M202.667,8.065v0.634h-1.227v3.202h-0.763V8.699h-1.228V8.065H202.667z M206.83,11.901l-0.144-2.257
		c-0.016-0.302-0.016-0.663-0.03-1.074h-0.039c-0.104,0.337-0.218,0.787-0.327,1.148l-0.692,2.128h-0.792l-0.693-2.188
		c-0.069-0.302-0.183-0.752-0.271-1.089h-0.04c0,0.356-0.015,0.723-0.029,1.074l-0.139,2.257h-0.737l0.287-3.836h1.147l0.658,1.876
		c0.084,0.297,0.153,0.579,0.258,0.976h0.01c0.099-0.356,0.193-0.679,0.272-0.966l0.668-1.886h1.099l0.297,3.836H206.83z"/>
</g>
</svg>
