<svg xmlns="http://www.w3.org/2000/svg" width="213.667" height="55.667" viewBox="0 0 213.667 55.667"><g fill="#fff"><path d="M37.277 30.238c0-3.6-2.84-6.657-6.493-6.964l-14.1-.06c-.896 0-1.604-.702-1.604-1.6v-4.14c0-.893.707-1.6 1.604-1.6h19.252v-7.81h-22.34c-3.84 0-6.964 3.154-6.964 7.024v9.844c0 3.662 2.757 6.65 6.443 6.964H27.23c.88 0 1.604.747 1.604 1.662v5.588c0 .9-.707 1.604-1.604 1.604H7.334v7.81H30.26c3.87 0 7.017-3.147 7.017-7.022v-11.3zM51.67 32.247h16.945V48.56h8.448V8.065h-8.448v16.373H51.67V8.065h-8.45V48.56h8.45zM83.927 8.065h8.508V48.56h-8.508zM99.14 48.56h28.602v-7.81H107.65v-8.503h16.133v-7.81H107.65v-8.56h20.092V8.064h-28.6zM142.94 8.065h-8.447V48.56h25.924v-7.81H142.94zM187.607 8.065H166.72V48.56h20.887c7.146 0 12.962-5.815 12.962-12.967V21.027c0-7.146-5.817-12.962-12.963-12.962zm-12.438 7.81h11.214c3.1 0 5.622 2.524 5.622 5.623v13.694c0 3.063-2.523 5.558-5.622 5.558H175.17V15.876zM202.667 8.065V8.7h-1.227v3.2h-.763V8.7h-1.228v-.635h3.217zm4.163 3.836l-.144-2.256c-.016-.302-.016-.663-.03-1.074h-.04c-.103.337-.217.787-.326 1.148l-.692 2.128h-.792l-.693-2.188c-.07-.302-.183-.752-.27-1.09h-.04c0 .357-.016.724-.03 1.075l-.14 2.257h-.736l.287-3.836h1.147l.66 1.876c.083.297.152.58.257.976h.01c.1-.356.193-.68.272-.966l.667-1.886h1.1l.296 3.836h-.763zM37.277 30.238c0-3.6-2.84-6.657-6.493-6.964l-14.1-.06c-.896 0-1.604-.702-1.604-1.6v-4.14c0-.893.707-1.6 1.604-1.6h19.252v-7.81h-22.34c-3.84 0-6.964 3.154-6.964 7.024v9.844c0 3.662 2.757 6.65 6.443 6.964H27.23c.88 0 1.604.747 1.604 1.662v5.588c0 .9-.707 1.604-1.604 1.604H7.334v7.81H30.26c3.87 0 7.017-3.147 7.017-7.022v-11.3zM51.67 32.247h16.945V48.56h8.448V8.065h-8.448v16.373H51.67V8.065h-8.45V48.56h8.45zM83.927 8.065h8.508V48.56h-8.508zM99.14 48.56h28.602v-7.81H107.65v-8.503h16.133v-7.81H107.65v-8.56h20.092V8.064h-28.6zM142.94 8.065h-8.447V48.56h25.924v-7.81H142.94zM187.607 8.065H166.72V48.56h20.887c7.146 0 12.962-5.815 12.962-12.967V21.027c0-7.146-5.817-12.962-12.963-12.962zm-12.438 7.81h11.214c3.1 0 5.622 2.524 5.622 5.623v13.694c0 3.063-2.523 5.558-5.622 5.558H175.17V15.876zM202.667 8.065V8.7h-1.227v3.2h-.763V8.7h-1.228v-.635h3.217zm4.163 3.836l-.144-2.256c-.016-.302-.016-.663-.03-1.074h-.04c-.103.337-.217.787-.326 1.148l-.692 2.128h-.792l-.693-2.188c-.07-.302-.183-.752-.27-1.09h-.04c0 .357-.016.724-.03 1.075l-.14 2.257h-.736l.287-3.836h1.147l.66 1.876c.083.297.152.58.257.976h.01c.1-.356.193-.68.272-.966l.667-1.886h1.1l.296 3.836h-.763z"/></g></svg>